STARTFONT 2.1
COMMENT 14-point 3270 font with APL characters
COMMENT Uses nonstandard ordering
COMMENT Copyright 1989 by Georgia Tech Research Corporation, Atlanta, GA
COMMENT 30332.  All Rights Reserved.
COMMENT  GTRC hereby grants public use of this software.  Derivative
COMMENT  works based on this software must incorporate this copyright
COMMENT  notice.
COMMENT X11 Port Copyright 1990 by Jeff Sparkes.
COMMENT Additional X11 Modifications Copyright 1993, 1994 by Paul Mattes.
COMMENT  Permission to use, copy, modify, and distribute this software and
COMMENT  its documentation for any purpose and without fee is hereby
COMMENT  granted, provided that the above copyright notice appear in all
COMMENT  copies and that both that copyright notice and this permission
COMMENT  notice appear in supporting documentation.
FONT 3270-apl
SIZE 14 72 72
FONTBOUNDINGBOX 9 14 0 -3
STARTPROPERTIES 16
FONTNAME_REGISTRY ""
FOUNDRY "Misc"
FAMILY_NAME "3270"
WEIGHT_NAME "Medium"
SLANT "R"
PIXEL_SIZE 14
POINT_SIZE 140
RESOLUTION_X 72
RESOLUTION_Y 72
SPACING "C"
CHARSET_REGISTRY "3270"
CHARSET_ENCODING "apl"
AVERAGE_WIDTH 90
DEFAULT_CHAR 0
FONT_ASCENT 11
FONT_DESCENT 3
ENDPROPERTIES
CHARS 256
STARTCHAR null
ENCODING 0
SWIDTH 562 0
DWIDTH 9 0
BBX 9 14 0 -3
BITMAP
0000
0000
0000
0000
0000
0000
0000
0000
0000
0000
0000
0000
0000
0000
ENDCHAR
STARTCHAR Aunderbar
ENCODING 1
SWIDTH 562 0
DWIDTH 9 0
BBX 7 11 1 -2
BITMAP
10
28
44
82
82
fe
82
82
82
00
fe
ENDCHAR
STARTCHAR ff
ENCODING 2
SWIDTH 562 0
DWIDTH 9 0
BBX 9 14 0 -3
BITMAP
0000
0000
0000
0000
0000
0000
0000
0000
0000
0000
0000
0000
0000
0000
ENDCHAR
STARTCHAR cr
ENCODING 3
SWIDTH 562 0
DWIDTH 9 0
BBX 9 14 0 -3
BITMAP
0000
0000
0000
0000
0000
0000
0000
0000
0000
0000
0000
0000
0000
0000
ENDCHAR
STARTCHAR nl
ENCODING 4
SWIDTH 562 0
DWIDTH 9 0
BBX 9 14 0 -3
BITMAP
0000
0000
0000
0000
0000
0000
0000
0000
0000
0000
0000
0000
0000
0000
ENDCHAR
STARTCHAR em
ENCODING 5
SWIDTH 562 0
DWIDTH 9 0
BBX 9 14 0 -3
BITMAP
0000
0000
0000
0000
0000
0000
0000
0000
0000
0000
0000
0000
0000
0000
ENDCHAR
STARTCHAR eightones
ENCODING 6
SWIDTH 562 0
DWIDTH 9 0
BBX 7 7 1 1
BITMAP
38
7c
fe
fe
fe
7c
38
ENDCHAR
STARTCHAR upcarettilde
ENCODING 7
SWIDTH 562 0
DWIDTH 9 0
BBX 7 8 1 3
BITMAP
60
92
0c
00
10
28
44
82
ENDCHAR
STARTCHAR greater
ENCODING 8
SWIDTH 562 0
DWIDTH 9 0
BBX 5 9 2 0
BITMAP
80
40
20
10
08
10
20
40
80
ENDCHAR
STARTCHAR less
ENCODING 9
SWIDTH 562 0
DWIDTH 9 0
BBX 5 9 2 0
BITMAP
08
10
20
40
80
40
20
10
08
ENDCHAR
STARTCHAR del
ENCODING 10
SWIDTH 562 0
DWIDTH 9 0
BBX 7 8 1 0
BITMAP
fe
82
44
44
28
28
10
10
ENDCHAR
STARTCHAR delta
ENCODING 11
SWIDTH 562 0
DWIDTH 9 0
BBX 7 8 1 0
BITMAP
10
10
28
28
44
44
82
fe
ENDCHAR
STARTCHAR parenright
ENCODING 12
SWIDTH 562 0
DWIDTH 9 0
BBX 3 9 3 0
BITMAP
80
40
20
20
20
20
20
40
80
ENDCHAR
STARTCHAR parenleft
ENCODING 13
SWIDTH 562 0
DWIDTH 9 0
BBX 3 9 3 0
BITMAP
20
40
80
80
80
80
80
40
20
ENDCHAR
STARTCHAR braceright
ENCODING 14
SWIDTH 562 0
DWIDTH 9 0
BBX 4 11 2 -1
BITMAP
c0
20
20
20
20
10
20
20
20
20
c0
ENDCHAR
STARTCHAR braceleft
ENCODING 15
SWIDTH 562 0
DWIDTH 9 0
BBX 4 11 2 -1
BITMAP
30
40
40
40
40
80
40
40
40
40
30
ENDCHAR
STARTCHAR space
ENCODING 16
SWIDTH 562 0
DWIDTH 9 0
BBX 9 14 0 -3
BITMAP
0000
0000
0000
0000
0000
0000
0000
0000
0000
0000
0000
0000
0000
0000
ENDCHAR
STARTCHAR equal
ENCODING 17
SWIDTH 562 0
DWIDTH 9 0
BBX 7 4 1 3
BITMAP
fe
00
00
fe
ENDCHAR
STARTCHAR apostrophe
ENCODING 18
SWIDTH 562 0
DWIDTH 9 0
BBX 1 3 4 7
BITMAP
80
80
80
ENDCHAR
STARTCHAR quotedbl
ENCODING 19
SWIDTH 562 0
DWIDTH 9 0
BBX 4 3 2 7
BITMAP
90
90
90
ENDCHAR
STARTCHAR slash
ENCODING 20
SWIDTH 562 0
DWIDTH 9 0
BBX 7 7 1 1
BITMAP
02
04
08
10
20
40
80
ENDCHAR
STARTCHAR backslash
ENCODING 21
SWIDTH 562 0
DWIDTH 9 0
BBX 7 7 1 1
BITMAP
80
40
20
10
08
04
02
ENDCHAR
STARTCHAR bar
ENCODING 22
SWIDTH 562 0
DWIDTH 9 0
BBX 1 13 4 -2
BITMAP
80
80
80
80
80
80
80
80
80
80
80
80
80
ENDCHAR
STARTCHAR brokenbar
ENCODING 23
SWIDTH 562 0
DWIDTH 9 0
BBX 1 12 4 -2
BITMAP
80
80
80
80
80
00
00
80
80
80
80
80
ENDCHAR
STARTCHAR question
ENCODING 24
SWIDTH 562 0
DWIDTH 9 0
BBX 6 10 2 0
BITMAP
78
84
84
08
10
20
20
00
00
20
ENDCHAR
STARTCHAR exclam
ENCODING 25
SWIDTH 562 0
DWIDTH 9 0
BBX 1 10 4 0
BITMAP
80
80
80
80
80
80
80
00
00
80
ENDCHAR
STARTCHAR dollar
ENCODING 26
SWIDTH 562 0
DWIDTH 9 0
BBX 7 11 1 -1
BITMAP
10
10
7e
90
90
7c
12
12
fc
10
10
ENDCHAR
STARTCHAR cent
ENCODING 27
SWIDTH 562 0
DWIDTH 9 0
BBX 6 9 1 1
BITMAP
10
10
7c
90
90
90
7c
10
10
ENDCHAR
STARTCHAR epsilon
ENCODING 28
SWIDTH 562 0
DWIDTH 9 0
BBX 6 7 1 0
BITMAP
3c
40
80
f8
80
40
3c
ENDCHAR
STARTCHAR iota
ENCODING 29
SWIDTH 562 0
DWIDTH 9 0
BBX 4 7 2 0
BITMAP
80
80
80
80
80
90
60
ENDCHAR
STARTCHAR multiply
ENCODING 30
SWIDTH 562 0
DWIDTH 9 0
BBX 5 5 2 2
BITMAP
88
50
20
50
88
ENDCHAR
STARTCHAR leftarrow
ENCODING 31
SWIDTH 562 0
DWIDTH 9 0
BBX 8 5 1 2
BITMAP
20
60
ff
60
20
ENDCHAR
STARTCHAR 0
ENCODING 32
SWIDTH 562 0
DWIDTH 9 0
BBX 7 10 1 0
BITMAP
38
44
82
82
92
92
82
82
44
38
ENDCHAR
STARTCHAR 1
ENCODING 33
SWIDTH 562 0
DWIDTH 9 0
BBX 3 10 2 0
BITMAP
20
60
a0
20
20
20
20
20
20
20
ENDCHAR
STARTCHAR 2
ENCODING 34
SWIDTH 562 0
DWIDTH 9 0
BBX 7 10 1 0
BITMAP
3c
42
82
02
04
08
10
20
40
fe
ENDCHAR
STARTCHAR 3
ENCODING 35
SWIDTH 562 0
DWIDTH 9 0
BBX 7 10 1 0
BITMAP
7e
02
04
08
18
04
02
02
84
78
ENDCHAR
STARTCHAR 4
ENCODING 36
SWIDTH 562 0
DWIDTH 9 0
BBX 7 10 1 0
BITMAP
0c
14
24
44
84
84
fe
04
04
04
ENDCHAR
STARTCHAR 5
ENCODING 37
SWIDTH 562 0
DWIDTH 9 0
BBX 7 10 1 0
BITMAP
fe
80
80
f8
04
02
02
02
04
f8
ENDCHAR
STARTCHAR 6
ENCODING 38
SWIDTH 562 0
DWIDTH 9 0
BBX 7 10 1 0
BITMAP
20
40
80
80
b8
c4
82
82
44
38
ENDCHAR
STARTCHAR 7
ENCODING 39
SWIDTH 562 0
DWIDTH 9 0
BBX 7 10 1 0
BITMAP
fe
02
04
08
10
20
20
20
20
20
ENDCHAR
STARTCHAR 8
ENCODING 40
SWIDTH 562 0
DWIDTH 9 0
BBX 7 10 1 0
BITMAP
38
44
44
44
38
44
82
82
44
38
ENDCHAR
STARTCHAR 9
ENCODING 41
SWIDTH 562 0
DWIDTH 9 0
BBX 7 10 1 0
BITMAP
3c
42
82
86
8a
72
02
02
02
04
ENDCHAR
STARTCHAR Runderbar
ENCODING 42
SWIDTH 562 0
DWIDTH 9 0
BBX 7 11 1 -2
BITMAP
fc
82
82
82
fc
90
88
84
82
00
fe
ENDCHAR
STARTCHAR section
ENCODING 43
SWIDTH 562 0
DWIDTH 9 0
BBX 6 12 1 -2
BITMAP
38
40
40
a0
90
88
44
24
14
08
08
70
ENDCHAR
STARTCHAR numbersign
ENCODING 44
SWIDTH 562 0
DWIDTH 9 0
BBX 6 6 1 3
BITMAP
48
fc
48
48
fc
48
ENDCHAR
STARTCHAR at
ENCODING 45
SWIDTH 562 0
DWIDTH 9 0
BBX 7 10 1 0
BITMAP
7c
82
82
9a
aa
bc
80
80
80
7e
ENDCHAR
STARTCHAR percent
ENCODING 46
SWIDTH 562 0
DWIDTH 9 0
BBX 7 11 1 -1
BITMAP
40
a0
42
04
08
10
20
40
84
0a
04
ENDCHAR
STARTCHAR underscore
ENCODING 47
SWIDTH 562 0
DWIDTH 9 0
BBX 7 1 1 -1
BITMAP
fe
ENDCHAR
STARTCHAR ampersand
ENCODING 48
SWIDTH 562 0
DWIDTH 9 0
BBX 7 10 1 -1
BITMAP
60
90
90
90
60
a2
94
88
74
02
ENDCHAR
STARTCHAR minus
ENCODING 49
SWIDTH 562 0
DWIDTH 9 0
BBX 5 1 2 4
BITMAP
f8
ENDCHAR
STARTCHAR period
ENCODING 50
SWIDTH 562 0
DWIDTH 9 0
BBX 2 2 3 0
BITMAP
c0
c0
ENDCHAR
STARTCHAR comma
ENCODING 51
SWIDTH 562 0
DWIDTH 9 0
BBX 4 4 2 -2
BITMAP
30
30
60
c0
ENDCHAR
STARTCHAR colon
ENCODING 52
SWIDTH 562 0
DWIDTH 9 0
BBX 2 6 3 0
BITMAP
c0
c0
00
00
c0
c0
ENDCHAR
STARTCHAR plus
ENCODING 53
SWIDTH 562 0
DWIDTH 9 0
BBX 7 7 1 1
BITMAP
10
10
10
fe
10
10
10
ENDCHAR
STARTCHAR notsign
ENCODING 54
SWIDTH 562 0
DWIDTH 9 0
BBX 7 3 1 6
BITMAP
fe
02
02
ENDCHAR
STARTCHAR uptack
ENCODING 55
SWIDTH 562 0
DWIDTH 9 0
BBX 5 7 2 0
BITMAP
f8
20
20
20
20
20
20
ENDCHAR
STARTCHAR quad
ENCODING 56
SWIDTH 562 0
DWIDTH 9 0
BBX 7 11 1 0
BITMAP
fe
82
82
82
82
82
82
82
82
82
fe
ENDCHAR
STARTCHAR rho
ENCODING 57
SWIDTH 562 0
DWIDTH 9 0
BBX 7 10 1 -3
BITMAP
38
44
82
82
82
c4
b8
80
80
80
ENDCHAR
STARTCHAR alpha
ENCODING 58
SWIDTH 562 0
DWIDTH 9 0
BBX 7 7 1 0
BITMAP
32
4a
84
84
84
4a
32
ENDCHAR
STARTCHAR asciitilde
ENCODING 59
SWIDTH 562 0
DWIDTH 9 0
BBX 7 4 1 6
BITMAP
60
f2
9e
0c
ENDCHAR
STARTCHAR bracketright
ENCODING 60
SWIDTH 562 0
DWIDTH 9 0
BBX 3 11 3 -1
BITMAP
e0
20
20
20
20
20
20
20
20
20
e0
ENDCHAR
STARTCHAR grave
ENCODING 61
SWIDTH 562 0
DWIDTH 9 0
BBX 3 3 3 7
BITMAP
80
40
20
ENDCHAR
STARTCHAR notequal
ENCODING 62
SWIDTH 562 0
DWIDTH 9 0
BBX 6 8 1 0
BITMAP
04
08
fc
10
20
fc
40
80
ENDCHAR
STARTCHAR circle
ENCODING 63
SWIDTH 562 0
DWIDTH 9 0
BBX 7 7 1 1
BITMAP
38
44
82
82
82
44
38
ENDCHAR
STARTCHAR Dunderbar
ENCODING 64
SWIDTH 562 0
DWIDTH 9 0
BBX 7 11 1 -2
BITMAP
f8
44
42
42
42
42
42
44
f8
00
fe
ENDCHAR
STARTCHAR Munderbar
ENCODING 65
SWIDTH 562 0
DWIDTH 9 0
BBX 7 11 1 -2
BITMAP
82
c6
aa
92
92
82
82
82
82
00
fe
ENDCHAR
STARTCHAR Qunderbar
ENCODING 66
SWIDTH 562 0
DWIDTH 9 0
BBX 7 11 1 -2
BITMAP
38
44
82
82
82
82
92
54
38
04
fe
ENDCHAR
STARTCHAR circlestile
ENCODING 67
SWIDTH 562 0
DWIDTH 9 0
BBX 7 11 1 -1
BITMAP
10
10
38
54
92
92
92
54
38
10
10
ENDCHAR
STARTCHAR deltastile
ENCODING 68
SWIDTH 562 0
DWIDTH 9 0
BBX 7 11 1 0
BITMAP
10
10
10
38
38
54
54
92
fe
10
10
ENDCHAR
STARTCHAR Funderbar
ENCODING 69
SWIDTH 562 0
DWIDTH 9 0
BBX 7 11 1 -2
BITMAP
fe
80
80
80
fc
80
80
80
80
00
fe
ENDCHAR
STARTCHAR circleslope
ENCODING 70
SWIDTH 562 0
DWIDTH 9 0
BBX 7 7 1 1
BITMAP
b8
44
a2
92
8a
44
3a
ENDCHAR
STARTCHAR upshoejot
ENCODING 71
SWIDTH 562 0
DWIDTH 9 0
BBX 5 6 2 1
BITMAP
70
88
d8
a8
88
88
ENDCHAR
STARTCHAR bracketleft
ENCODING 72
SWIDTH 562 0
DWIDTH 9 0
BBX 3 11 3 -1
BITMAP
e0
80
80
80
80
80
80
80
80
80
e0
ENDCHAR
STARTCHAR upstile
ENCODING 73
SWIDTH 562 0
DWIDTH 9 0
BBX 3 9 3 0
BITMAP
e0
80
80
80
80
80
80
80
80
ENDCHAR
STARTCHAR Junderbar
ENCODING 74
SWIDTH 562 0
DWIDTH 9 0
BBX 6 11 1 -2
BITMAP
1c
08
08
08
08
08
88
88
70
00
fc
ENDCHAR
STARTCHAR slope
ENCODING 75
SWIDTH 562 0
DWIDTH 9 0
BBX 5 5 2 2
BITMAP
80
40
20
10
08
ENDCHAR
STARTCHAR divide
ENCODING 76
SWIDTH 562 0
DWIDTH 9 0
BBX 6 7 1 1
BITMAP
30
30
00
fc
00
30
30
ENDCHAR
STARTCHAR threequarters
ENCODING 77
SWIDTH 562 0
DWIDTH 9 0
BBX 7 9 1 0
BITMAP
60
90
20
90
64
0c
14
1e
04
ENDCHAR
STARTCHAR delstile
ENCODING 78
SWIDTH 562 0
DWIDTH 9 0
BBX 7 11 1 0
BITMAP
10
10
fe
92
54
54
38
38
10
10
10
ENDCHAR
STARTCHAR Hunderbar
ENCODING 79
SWIDTH 562 0
DWIDTH 9 0
BBX 7 11 1 -2
BITMAP
82
82
82
82
fe
82
82
82
82
00
fe
ENDCHAR
STARTCHAR Cunderbar
ENCODING 80
SWIDTH 562 0
DWIDTH 9 0
BBX 7 11 1 -2
BITMAP
1c
22
40
80
80
80
40
22
1c
00
fe
ENDCHAR
STARTCHAR Lunderbar
ENCODING 81
SWIDTH 562 0
DWIDTH 9 0
BBX 7 11 1 -2
BITMAP
80
80
80
80
80
80
80
80
fe
00
fe
ENDCHAR
STARTCHAR Punderbar
ENCODING 82
SWIDTH 562 0
DWIDTH 9 0
BBX 7 11 1 -2
BITMAP
f8
84
82
82
84
f8
80
80
80
00
fe
ENDCHAR
STARTCHAR squad
ENCODING 83
SWIDTH 562 0
DWIDTH 9 0
BBX 4 11 2 0
BITMAP
f0
90
90
90
90
90
90
90
90
90
f0
ENDCHAR
STARTCHAR overbar
ENCODING 84
SWIDTH 562 0
DWIDTH 9 0
BBX 7 1 1 9
BITMAP
fe
ENDCHAR
STARTCHAR Bunderbar
ENCODING 85
SWIDTH 562 0
DWIDTH 9 0
BBX 7 11 1 -2
BITMAP
f8
44
42
44
78
44
42
44
f8
00
fe
ENDCHAR
STARTCHAR Kunderbar
ENCODING 86
SWIDTH 562 0
DWIDTH 9 0
BBX 7 11 1 -2
BITMAP
82
84
88
90
a0
d0
88
84
82
00
fe
ENDCHAR
STARTCHAR Ounderbar
ENCODING 87
SWIDTH 562 0
DWIDTH 9 0
BBX 7 11 1 -2
BITMAP
7c
82
82
82
82
82
82
82
7c
00
fe
ENDCHAR
STARTCHAR downcarettilde
ENCODING 88
SWIDTH 562 0
DWIDTH 9 0
BBX 7 8 1 3
BITMAP
60
92
0c
00
82
44
28
10
ENDCHAR
STARTCHAR quotedot
ENCODING 89
SWIDTH 562 0
DWIDTH 9 0
BBX 2 10 3 0
BITMAP
c0
c0
40
40
40
00
00
00
c0
c0
ENDCHAR
STARTCHAR Eunderbar
ENCODING 90
SWIDTH 562 0
DWIDTH 9 0
BBX 7 11 1 -2
BITMAP
fe
80
80
80
f8
80
80
80
fe
00
fe
ENDCHAR
STARTCHAR stile
ENCODING 91
SWIDTH 562 0
DWIDTH 9 0
BBX 1 8 4 0
BITMAP
80
80
80
80
80
80
80
80
ENDCHAR
STARTCHAR Nunderbar
ENCODING 92
SWIDTH 562 0
DWIDTH 9 0
BBX 7 11 1 -2
BITMAP
82
c2
a2
92
8a
86
82
82
82
00
fe
ENDCHAR
STARTCHAR quadslope
ENCODING 93
SWIDTH 562 0
DWIDTH 9 0
BBX 7 11 1 0
BITMAP
fe
82
82
c2
a2
92
8a
86
82
82
fe
ENDCHAR
STARTCHAR quadquote
ENCODING 94
SWIDTH 562 0
DWIDTH 9 0
BBX 7 11 1 0
BITMAP
fe
b2
92
92
92
82
82
82
82
82
fe
ENDCHAR
STARTCHAR Iunderbar
ENCODING 95
SWIDTH 562 0
DWIDTH 9 0
BBX 3 11 3 -2
BITMAP
e0
40
40
40
40
40
40
40
e0
00
e0
ENDCHAR
STARTCHAR Uunderbar
ENCODING 96
SWIDTH 562 0
DWIDTH 9 0
BBX 7 11 1 -2
BITMAP
82
82
82
82
82
82
82
82
7c
00
fe
ENDCHAR
STARTCHAR iotaunderbar
ENCODING 97
SWIDTH 562 0
DWIDTH 9 0
BBX 4 9 2 -2
BITMAP
80
80
80
80
80
90
60
00
f0
ENDCHAR
STARTCHAR downcaret
ENCODING 98
SWIDTH 562 0
DWIDTH 9 0
BBX 5 3 2 7
BITMAP
88
50
20
ENDCHAR
STARTCHAR circlebar
ENCODING 99
SWIDTH 562 0
DWIDTH 9 0
BBX 7 7 1 1
BITMAP
38
44
82
fe
82
44
38
ENDCHAR
STARTCHAR circlestar
ENCODING 100
SWIDTH 562 0
DWIDTH 9 0
BBX 7 7 1 1
BITMAP
38
54
ba
92
aa
44
38
ENDCHAR
STARTCHAR Wunderbar
ENCODING 101
SWIDTH 562 0
DWIDTH 9 0
BBX 7 11 1 -2
BITMAP
82
82
82
82
92
92
92
aa
44
00
fe
ENDCHAR
STARTCHAR uptackjot
ENCODING 102
SWIDTH 562 0
DWIDTH 9 0
BBX 5 8 2 0
BITMAP
f8
20
70
a8
a8
70
20
20
ENDCHAR
STARTCHAR downtackup
ENCODING 103
SWIDTH 562 0
DWIDTH 9 0
BBX 5 7 2 0
BITMAP
f8
20
20
20
20
20
f8
ENDCHAR
STARTCHAR slashbar
ENCODING 104
SWIDTH 562 0
DWIDTH 9 0
BBX 7 5 1 2
BITMAP
04
08
fe
20
40
ENDCHAR
STARTCHAR threesuperior
ENCODING 105
SWIDTH 562 0
DWIDTH 9 0
BBX 4 5 2 4
BITMAP
60
90
20
90
60
ENDCHAR
STARTCHAR rightshoe
ENCODING 106
SWIDTH 562 0
DWIDTH 9 0
BBX 5 5 2 2
BITMAP
f0
08
08
08
f0
ENDCHAR
STARTCHAR leftshoe
ENCODING 107
SWIDTH 562 0
DWIDTH 9 0
BBX 5 5 2 2
BITMAP
78
80
80
80
78
ENDCHAR
STARTCHAR uparrow
ENCODING 108
SWIDTH 562 0
DWIDTH 9 0
BBX 5 8 2 0
BITMAP
20
70
f8
20
20
20
20
20
ENDCHAR
STARTCHAR downarrow
ENCODING 109
SWIDTH 562 0
DWIDTH 9 0
BBX 5 8 2 0
BITMAP
20
20
20
20
20
f8
70
20
ENDCHAR
STARTCHAR upshoe
ENCODING 110
SWIDTH 562 0
DWIDTH 9 0
BBX 5 6 2 1
BITMAP
70
88
88
88
88
88
ENDCHAR
STARTCHAR downshoe
ENCODING 111
SWIDTH 562 0
DWIDTH 9 0
BBX 5 6 2 0
BITMAP
88
88
88
88
88
70
ENDCHAR
STARTCHAR Tunderbar
ENCODING 112
SWIDTH 562 0
DWIDTH 9 0
BBX 7 11 1 -2
BITMAP
fe
10
10
10
10
10
10
10
10
00
fe
ENDCHAR
STARTCHAR quadjot
ENCODING 113
SWIDTH 562 0
DWIDTH 9 0
BBX 7 11 1 0
BITMAP
fe
82
82
ba
c6
c6
c6
ba
82
82
fe
ENDCHAR
STARTCHAR righttack
ENCODING 114
SWIDTH 562 0
DWIDTH 9 0
BBX 5 7 2 1
BITMAP
08
08
08
f8
08
08
08
ENDCHAR
STARTCHAR diaeresisdot
ENCODING 115
SWIDTH 562 0
DWIDTH 9 0
BBX 7 9 1 1
BITMAP
c6
c6
00
00
00
00
00
30
30
ENDCHAR
STARTCHAR deltaunderbar
ENCODING 116
SWIDTH 562 0
DWIDTH 9 0
BBX 7 10 1 0
BITMAP
10
10
28
28
44
44
82
fe
00
fe
ENDCHAR
STARTCHAR Sunderbar
ENCODING 117
SWIDTH 562 0
DWIDTH 9 0
BBX 7 11 1 -2
BITMAP
7c
82
80
60
10
0c
02
82
7c
00
fe
ENDCHAR
STARTCHAR diaeresis
ENCODING 118
SWIDTH 562 0
DWIDTH 9 0
BBX 7 2 1 8
BITMAP
c6
c6
ENDCHAR
STARTCHAR lefttack
ENCODING 119
SWIDTH 562 0
DWIDTH 9 0
BBX 5 7 2 1
BITMAP
80
80
80
f8
80
80
80
ENDCHAR
STARTCHAR slopebar
ENCODING 120
SWIDTH 562 0
DWIDTH 9 0
BBX 7 5 1 2
BITMAP
40
20
fe
08
04
ENDCHAR
STARTCHAR deltilde
ENCODING 121
SWIDTH 562 0
DWIDTH 9 0
BBX 7 8 1 1
BITMAP
fe
82
44
64
ba
2c
10
10
ENDCHAR
STARTCHAR Vunderbar
ENCODING 122
SWIDTH 562 0
DWIDTH 9 0
BBX 7 11 1 -2
BITMAP
82
82
44
44
44
28
28
10
10
00
fe
ENDCHAR
STARTCHAR upcaret
ENCODING 123
SWIDTH 562 0
DWIDTH 9 0
BBX 5 3 2 7
BITMAP
20
50
88
ENDCHAR
STARTCHAR epsilonunderbar
ENCODING 124
SWIDTH 562 0
DWIDTH 9 0
BBX 6 9 1 -2
BITMAP
3c
40
80
f8
80
40
3c
00
fc
ENDCHAR
STARTCHAR quaddivide
ENCODING 125
SWIDTH 562 0
DWIDTH 9 0
BBX 7 11 1 0
BITMAP
fe
82
92
92
82
fe
82
92
92
82
fe
ENDCHAR
STARTCHAR downtackjot
ENCODING 126
SWIDTH 562 0
DWIDTH 9 0
BBX 5 8 2 0
BITMAP
20
20
70
a8
a8
70
20
f8
ENDCHAR
STARTCHAR Zunderbar
ENCODING 127
SWIDTH 562 0
DWIDTH 9 0
BBX 7 11 1 -2
BITMAP
fe
02
04
08
10
20
40
80
fe
00
fe
ENDCHAR
STARTCHAR a
ENCODING 128
SWIDTH 562 0
DWIDTH 9 0
BBX 7 7 1 0
BITMAP
78
04
04
7c
84
84
7e
ENDCHAR
STARTCHAR b
ENCODING 129
SWIDTH 562 0
DWIDTH 9 0
BBX 6 10 1 0
BITMAP
80
80
80
f0
88
84
84
84
88
f0
ENDCHAR
STARTCHAR c
ENCODING 130
SWIDTH 562 0
DWIDTH 9 0
BBX 6 7 1 0
BITMAP
3c
40
80
80
80
40
3c
ENDCHAR
STARTCHAR d
ENCODING 131
SWIDTH 562 0
DWIDTH 9 0
BBX 6 10 1 0
BITMAP
04
04
04
3c
44
84
84
84
44
3c
ENDCHAR
STARTCHAR e
ENCODING 132
SWIDTH 562 0
DWIDTH 9 0
BBX 6 7 1 0
BITMAP
78
84
84
fc
80
80
7c
ENDCHAR
STARTCHAR f
ENCODING 133
SWIDTH 562 0
DWIDTH 9 0
BBX 6 10 1 0
BITMAP
1c
20
20
f8
20
20
20
20
20
20
ENDCHAR
STARTCHAR g
ENCODING 134
SWIDTH 562 0
DWIDTH 9 0
BBX 7 9 1 -2
BITMAP
3c
42
82
82
46
3a
02
42
3c
ENDCHAR
STARTCHAR h
ENCODING 135
SWIDTH 562 0
DWIDTH 9 0
BBX 6 10 1 0
BITMAP
80
80
80
b8
c4
84
84
84
84
84
ENDCHAR
STARTCHAR i
ENCODING 136
SWIDTH 562 0
DWIDTH 9 0
BBX 1 10 4 0
BITMAP
80
00
00
80
80
80
80
80
80
80
ENDCHAR
STARTCHAR j
ENCODING 137
SWIDTH 562 0
DWIDTH 9 0
BBX 5 12 2 -2
BITMAP
08
00
00
08
08
08
08
08
08
08
88
70
ENDCHAR
STARTCHAR k
ENCODING 138
SWIDTH 562 0
DWIDTH 9 0
BBX 5 10 2 0
BITMAP
80
80
80
88
90
a0
c0
a0
90
88
ENDCHAR
STARTCHAR l
ENCODING 139
SWIDTH 562 0
DWIDTH 9 0
BBX 2 10 4 0
BITMAP
80
80
80
80
80
80
80
80
80
c0
ENDCHAR
STARTCHAR m
ENCODING 140
SWIDTH 562 0
DWIDTH 9 0
BBX 7 7 1 0
BITMAP
6c
92
92
92
92
92
92
ENDCHAR
STARTCHAR n
ENCODING 141
SWIDTH 562 0
DWIDTH 9 0
BBX 7 7 1 0
BITMAP
bc
42
42
42
42
42
42
ENDCHAR
STARTCHAR o
ENCODING 142
SWIDTH 562 0
DWIDTH 9 0
BBX 6 7 1 0
BITMAP
78
84
84
84
84
84
78
ENDCHAR
STARTCHAR p
ENCODING 143
SWIDTH 562 0
DWIDTH 9 0
BBX 6 10 1 -3
BITMAP
f0
88
84
84
84
88
f0
80
80
80
ENDCHAR
STARTCHAR q
ENCODING 144
SWIDTH 562 0
DWIDTH 9 0
BBX 7 9 1 -2
BITMAP
3c
44
84
84
44
3c
04
04
06
ENDCHAR
STARTCHAR r
ENCODING 145
SWIDTH 562 0
DWIDTH 9 0
BBX 7 7 1 0
BITMAP
9c
62
40
40
40
40
40
ENDCHAR
STARTCHAR s
ENCODING 146
SWIDTH 562 0
DWIDTH 9 0
BBX 6 7 1 0
BITMAP
78
84
40
30
08
84
78
ENDCHAR
STARTCHAR t
ENCODING 147
SWIDTH 562 0
DWIDTH 9 0
BBX 5 10 2 0
BITMAP
20
20
20
f8
20
20
20
20
20
20
ENDCHAR
STARTCHAR u
ENCODING 148
SWIDTH 562 0
DWIDTH 9 0
BBX 7 7 1 0
BITMAP
84
84
84
84
84
84
7a
ENDCHAR
STARTCHAR v
ENCODING 149
SWIDTH 562 0
DWIDTH 9 0
BBX 7 7 1 0
BITMAP
82
82
44
44
28
28
10
ENDCHAR
STARTCHAR w
ENCODING 150
SWIDTH 562 0
DWIDTH 9 0
BBX 7 7 1 0
BITMAP
82
82
82
92
92
aa
44
ENDCHAR
STARTCHAR x
ENCODING 151
SWIDTH 562 0
DWIDTH 9 0
BBX 7 7 1 0
BITMAP
82
44
28
10
28
44
82
ENDCHAR
STARTCHAR y
ENCODING 152
SWIDTH 562 0
DWIDTH 9 0
BBX 6 10 1 -3
BITMAP
84
84
84
84
44
28
10
20
40
80
ENDCHAR
STARTCHAR z
ENCODING 153
SWIDTH 562 0
DWIDTH 9 0
BBX 7 7 1 0
BITMAP
fe
04
08
10
20
40
fe
ENDCHAR
STARTCHAR splat
ENCODING 154
SWIDTH 562 0
DWIDTH 9 0
BBX 7 10 1 0
BITMAP
82
7c
44
44
44
44
44
44
7c
82
ENDCHAR
STARTCHAR diamond
ENCODING 155
SWIDTH 562 0
DWIDTH 9 0
BBX 7 7 1 2
BITMAP
10
28
44
82
44
28
10
ENDCHAR
STARTCHAR Gunderbar
ENCODING 156
SWIDTH 562 0
DWIDTH 9 0
BBX 7 11 1 -2
BITMAP
38
44
80
80
80
9e
84
44
3c
00
fe
ENDCHAR
STARTCHAR division
ENCODING 157
SWIDTH 562 0
DWIDTH 9 0
BBX 6 7 1 1
BITMAP
30
30
00
fc
00
30
30
ENDCHAR
STARTCHAR fm
ENCODING 158
SWIDTH 562 0
DWIDTH 9 0
BBX 7 11 1 -1
BITMAP
fe
fe
00
18
18
00
00
18
18
30
60
ENDCHAR
STARTCHAR dup
ENCODING 159
SWIDTH 562 0
DWIDTH 9 0
BBX 7 10 1 0
BITMAP
fe
fe
00
10
92
54
28
54
92
10
ENDCHAR
STARTCHAR A
ENCODING 160
SWIDTH 562 0
DWIDTH 9 0
BBX 7 9 1 0
BITMAP
10
28
44
82
82
fe
82
82
82
ENDCHAR
STARTCHAR B
ENCODING 161
SWIDTH 562 0
DWIDTH 9 0
BBX 7 9 1 0
BITMAP
f8
44
42
44
78
44
42
44
f8
ENDCHAR
STARTCHAR C
ENCODING 162
SWIDTH 562 0
DWIDTH 9 0
BBX 7 9 1 0
BITMAP
1c
22
40
80
80
80
40
22
1c
ENDCHAR
STARTCHAR D
ENCODING 163
SWIDTH 562 0
DWIDTH 9 0
BBX 7 9 1 0
BITMAP
f8
44
42
42
42
42
42
44
f8
ENDCHAR
STARTCHAR E
ENCODING 164
SWIDTH 562 0
DWIDTH 9 0
BBX 7 9 1 0
BITMAP
fe
80
80
80
f8
80
80
80
fe
ENDCHAR
STARTCHAR F
ENCODING 165
SWIDTH 562 0
DWIDTH 9 0
BBX 7 9 1 0
BITMAP
fe
80
80
80
fc
80
80
80
80
ENDCHAR
STARTCHAR G
ENCODING 166
SWIDTH 562 0
DWIDTH 9 0
BBX 7 9 1 0
BITMAP
38
44
80
80
80
9e
84
44
3c
ENDCHAR
STARTCHAR H
ENCODING 167
SWIDTH 562 0
DWIDTH 9 0
BBX 7 9 1 0
BITMAP
82
82
82
82
fe
82
82
82
82
ENDCHAR
STARTCHAR I
ENCODING 168
SWIDTH 562 0
DWIDTH 9 0
BBX 3 9 3 0
BITMAP
e0
40
40
40
40
40
40
40
e0
ENDCHAR
STARTCHAR J
ENCODING 169
SWIDTH 562 0
DWIDTH 9 0
BBX 6 9 1 0
BITMAP
1c
08
08
08
08
08
88
88
70
ENDCHAR
STARTCHAR K
ENCODING 170
SWIDTH 562 0
DWIDTH 9 0
BBX 7 9 1 0
BITMAP
82
84
88
90
a0
d0
88
84
82
ENDCHAR
STARTCHAR L
ENCODING 171
SWIDTH 562 0
DWIDTH 9 0
BBX 7 9 1 0
BITMAP
80
80
80
80
80
80
80
80
fe
ENDCHAR
STARTCHAR M
ENCODING 172
SWIDTH 562 0
DWIDTH 9 0
BBX 7 9 1 0
BITMAP
82
c6
aa
92
92
82
82
82
82
ENDCHAR
STARTCHAR N
ENCODING 173
SWIDTH 562 0
DWIDTH 9 0
BBX 7 9 1 0
BITMAP
82
c2
a2
92
8a
86
82
82
82
ENDCHAR
STARTCHAR O
ENCODING 174
SWIDTH 562 0
DWIDTH 9 0
BBX 7 9 1 0
BITMAP
7c
82
82
82
82
82
82
82
7c
ENDCHAR
STARTCHAR P
ENCODING 175
SWIDTH 562 0
DWIDTH 9 0
BBX 7 9 1 0
BITMAP
f8
84
82
82
84
f8
80
80
80
ENDCHAR
STARTCHAR Q
ENCODING 176
SWIDTH 562 0
DWIDTH 9 0
BBX 7 11 1 -2
BITMAP
38
44
82
82
82
82
92
54
38
04
02
ENDCHAR
STARTCHAR R
ENCODING 177
SWIDTH 562 0
DWIDTH 9 0
BBX 7 9 1 0
BITMAP
fc
82
82
82
fc
90
88
84
82
ENDCHAR
STARTCHAR S
ENCODING 178
SWIDTH 562 0
DWIDTH 9 0
BBX 7 9 1 0
BITMAP
7c
82
80
60
10
0c
02
82
7c
ENDCHAR
STARTCHAR T
ENCODING 179
SWIDTH 562 0
DWIDTH 9 0
BBX 7 9 1 0
BITMAP
fe
10
10
10
10
10
10
10
10
ENDCHAR
STARTCHAR U
ENCODING 180
SWIDTH 562 0
DWIDTH 9 0
BBX 7 9 1 0
BITMAP
82
82
82
82
82
82
82
82
7c
ENDCHAR
STARTCHAR V
ENCODING 181
SWIDTH 562 0
DWIDTH 9 0
BBX 7 9 1 0
BITMAP
82
82
44
44
44
28
28
10
10
ENDCHAR
STARTCHAR W
ENCODING 182
SWIDTH 562 0
DWIDTH 9 0
BBX 7 9 1 0
BITMAP
82
82
82
82
92
92
92
aa
44
ENDCHAR
STARTCHAR X
ENCODING 183
SWIDTH 562 0
DWIDTH 9 0
BBX 7 9 1 0
BITMAP
82
82
44
28
10
28
44
82
82
ENDCHAR
STARTCHAR Y
ENCODING 184
SWIDTH 562 0
DWIDTH 9 0
BBX 7 9 1 0
BITMAP
82
44
28
10
10
10
10
10
10
ENDCHAR
STARTCHAR Z
ENCODING 185
SWIDTH 562 0
DWIDTH 9 0
BBX 7 9 1 0
BITMAP
fe
02
04
08
10
20
40
80
fe
ENDCHAR
STARTCHAR plusminus
ENCODING 186
SWIDTH 562 0
DWIDTH 9 0
BBX 7 9 1 0
BITMAP
10
10
10
fe
10
10
10
00
fe
ENDCHAR
STARTCHAR apltilde
ENCODING 187
SWIDTH 562 0
DWIDTH 9 0
BBX 7 3 1 7
BITMAP
60
92
0c
ENDCHAR
STARTCHAR Xunderbar
ENCODING 188
SWIDTH 562 0
DWIDTH 9 0
BBX 7 11 1 -2
BITMAP
82
82
44
28
10
28
44
82
82
00
fe
ENDCHAR
STARTCHAR Yunderbar
ENCODING 189
SWIDTH 562 0
DWIDTH 9 0
BBX 7 11 1 -2
BITMAP
82
44
28
10
10
10
10
10
10
00
fe
ENDCHAR
STARTCHAR semicolon
ENCODING 190
SWIDTH 562 0
DWIDTH 9 0
BBX 4 8 2 -2
BITMAP
30
30
00
00
30
30
60
c0
ENDCHAR
STARTCHAR asterisk
ENCODING 191
SWIDTH 562 0
DWIDTH 9 0
BBX 7 7 1 2
BITMAP
10
92
54
28
54
92
10
ENDCHAR
STARTCHAR c0
ENCODING 192
SWIDTH 562 0
DWIDTH 9 0
BBX 9 14 0 -3
BITMAP
0000
0000
0000
0000
0000
0000
0000
0000
0000
0000
0000
0000
0000
0000
ENDCHAR
STARTCHAR c1
ENCODING 193
SWIDTH 562 0
DWIDTH 9 0
BBX 9 14 0 -3
BITMAP
0000
0000
0000
0000
0000
0000
0000
0000
0000
0000
0000
0000
0000
0000
ENDCHAR
STARTCHAR c2
ENCODING 194
SWIDTH 562 0
DWIDTH 9 0
BBX 9 14 0 -3
BITMAP
0000
0000
0000
0000
0000
0000
0000
0000
0000
0000
0000
0000
0000
0000
ENDCHAR
STARTCHAR c3
ENCODING 195
SWIDTH 562 0
DWIDTH 9 0
BBX 9 14 0 -3
BITMAP
0000
0000
0000
0000
0000
0000
0000
0000
0000
0000
0000
0000
0000
0000
ENDCHAR
STARTCHAR c4
ENCODING 196
SWIDTH 562 0
DWIDTH 9 0
BBX 9 14 0 -3
BITMAP
0000
0000
0000
0000
0000
0000
0000
0000
0000
0000
0000
0000
0000
0000
ENDCHAR
STARTCHAR c5
ENCODING 197
SWIDTH 562 0
DWIDTH 9 0
BBX 9 14 0 -3
BITMAP
0000
0000
0000
0000
0000
0000
0000
0000
0000
0000
0000
0000
0000
0000
ENDCHAR
STARTCHAR c6
ENCODING 198
SWIDTH 562 0
DWIDTH 9 0
BBX 9 14 0 -3
BITMAP
0000
0000
0000
0000
0000
0000
0000
0000
0000
0000
0000
0000
0000
0000
ENDCHAR
STARTCHAR c7
ENCODING 199
SWIDTH 562 0
DWIDTH 9 0
BBX 9 14 0 -3
BITMAP
0000
0000
0000
0000
0000
0000
0000
0000
0000
0000
0000
0000
0000
0000
ENDCHAR
STARTCHAR c8
ENCODING 200
SWIDTH 562 0
DWIDTH 9 0
BBX 9 14 0 -3
BITMAP
0000
0000
0000
0000
0000
0000
0000
0000
0000
0000
0000
0000
0000
0000
ENDCHAR
STARTCHAR c9
ENCODING 201
SWIDTH 562 0
DWIDTH 9 0
BBX 9 14 0 -3
BITMAP
0000
0000
0000
0000
0000
0000
0000
0000
0000
0000
0000
0000
0000
0000
ENDCHAR
STARTCHAR ca
ENCODING 202
SWIDTH 562 0
DWIDTH 9 0
BBX 9 14 0 -3
BITMAP
0000
0000
0000
0000
0000
0000
0000
0000
0000
0000
0000
0000
0000
0000
ENDCHAR
STARTCHAR cb
ENCODING 203
SWIDTH 562 0
DWIDTH 9 0
BBX 9 14 0 -3
BITMAP
0000
0000
0000
0000
0000
0000
0000
0000
0000
0000
0000
0000
0000
0000
ENDCHAR
STARTCHAR cc
ENCODING 204
SWIDTH 562 0
DWIDTH 9 0
BBX 9 14 0 -3
BITMAP
0000
0000
0000
0000
0000
0000
0000
0000
0000
0000
0000
0000
0000
0000
ENDCHAR
STARTCHAR cd
ENCODING 205
SWIDTH 562 0
DWIDTH 9 0
BBX 9 14 0 -3
BITMAP
0000
0000
0000
0000
0000
0000
0000
0000
0000
0000
0000
0000
0000
0000
ENDCHAR
STARTCHAR ce
ENCODING 206
SWIDTH 562 0
DWIDTH 9 0
BBX 9 14 0 -3
BITMAP
0000
0000
0000
0000
0000
0000
0000
0000
0000
0000
0000
0000
0000
0000
ENDCHAR
STARTCHAR cf
ENCODING 207
SWIDTH 562 0
DWIDTH 9 0
BBX 9 14 0 -3
BITMAP
0000
0000
0000
0000
0000
0000
0000
0000
0000
0000
0000
0000
0000
0000
ENDCHAR
STARTCHAR omega
ENCODING 208
SWIDTH 562 0
DWIDTH 9 0
BBX 7 5 1 0
BITMAP
44
82
92
92
6c
ENDCHAR
STARTCHAR jot
ENCODING 209
SWIDTH 562 0
DWIDTH 9 0
BBX 4 4 2 2
BITMAP
60
90
90
60
ENDCHAR
STARTCHAR boxA
ENCODING 210
SWIDTH 562 0
DWIDTH 9 0
BBX 9 12 0 -1
BITMAP
2000
5000
8800
8800
f800
8800
8800
0000
ff80
8080
8080
ff80
ENDCHAR
STARTCHAR insert
ENCODING 211
SWIDTH 562 0
DWIDTH 9 0
BBX 9 7 0 0
BITMAP
0800
1c00
3e00
7700
e380
c180
8080
ENDCHAR
STARTCHAR boxB
ENCODING 212
SWIDTH 562 0
DWIDTH 9 0
BBX 9 12 0 -1
BITMAP
0f00
0480
0480
0700
0480
0480
0f00
0000
ff80
8080
8080
ff80
ENDCHAR
STARTCHAR box6
ENCODING 213
SWIDTH 562 0
DWIDTH 9 0
BBX 9 11 0 -2
BITMAP
ff80
8080
9080
a080
a080
ac80
b280
a280
9c80
8080
ff80
ENDCHAR
STARTCHAR rightarrow
ENCODING 214
SWIDTH 562 0
DWIDTH 9 0
BBX 8 5 0 2
BITMAP
04
06
ff
06
04
ENDCHAR
STARTCHAR downtack
ENCODING 215
SWIDTH 562 0
DWIDTH 9 0
BBX 5 7 2 0
BITMAP
20
20
20
20
20
20
f8
ENDCHAR
STARTCHAR rightarrow
ENCODING 216
SWIDTH 562 0
DWIDTH 9 0
BBX 8 5 0 2
BITMAP
04
06
ff
06
04
ENDCHAR
STARTCHAR notless
ENCODING 217
SWIDTH 562 0
DWIDTH 9 0
BBX 6 7 1 1
BITMAP
c0
30
0c
30
c0
00
fc
ENDCHAR
STARTCHAR upshift
ENCODING 218
SWIDTH 562 0
DWIDTH 9 0
BBX 7 11 1 -1
BITMAP
10
28
44
82
ee
28
28
28
28
28
38
ENDCHAR
STARTCHAR human
ENCODING 219
SWIDTH 562 0
DWIDTH 9 0
BBX 7 10 1 0
BITMAP
38
28
38
10
fe
10
10
28
44
82
ENDCHAR
STARTCHAR underB
ENCODING 220
SWIDTH 562 0
DWIDTH 9 0
BBX 9 9 0 2
BITMAP
3c00
1200
1200
1c00
1200
1200
3c00
0000
ff80
ENDCHAR
STARTCHAR downshift
ENCODING 221
SWIDTH 562 0
DWIDTH 9 0
BBX 7 11 1 -1
BITMAP
38
28
28
28
28
28
ee
82
44
28
10
ENDCHAR
STARTCHAR boxquestion
ENCODING 222
SWIDTH 562 0
DWIDTH 9 0
BBX 9 13 0 -2
BITMAP
ff80
8080
9c80
a280
a280
8280
8480
8880
8880
8080
8880
8080
ff80
ENDCHAR
STARTCHAR boxsolid
ENCODING 223
SWIDTH 562 0
DWIDTH 9 0
BBX 9 13 0 -2
BITMAP
ff80
ff80
ff80
ff80
ff80
ff80
ff80
ff80
ff80
ff80
ff80
ff80
ff80
ENDCHAR
STARTCHAR e0
ENCODING 224
SWIDTH 562 0
DWIDTH 9 0
BBX 9 14 0 -3
BITMAP
0000
0000
0000
0000
0000
0000
0000
0000
0000
0000
0000
0000
0000
0000
ENDCHAR
STARTCHAR e1
ENCODING 225
SWIDTH 562 0
DWIDTH 9 0
BBX 9 14 0 -3
BITMAP
0000
0000
0000
0000
0000
0000
0000
0000
0000
0000
0000
0000
0000
0000
ENDCHAR
STARTCHAR e2
ENCODING 226
SWIDTH 562 0
DWIDTH 9 0
BBX 9 14 0 -3
BITMAP
0000
0000
0000
0000
0000
0000
0000
0000
0000
0000
0000
0000
0000
0000
ENDCHAR
STARTCHAR e3
ENCODING 227
SWIDTH 562 0
DWIDTH 9 0
BBX 9 14 0 -3
BITMAP
0000
0000
0000
0000
0000
0000
0000
0000
0000
0000
0000
0000
0000
0000
ENDCHAR
STARTCHAR e4
ENCODING 228
SWIDTH 562 0
DWIDTH 9 0
BBX 9 14 0 -3
BITMAP
0000
0000
0000
0000
0000
0000
0000
0000
0000
0000
0000
0000
0000
0000
ENDCHAR
STARTCHAR e5
ENCODING 229
SWIDTH 562 0
DWIDTH 9 0
BBX 9 14 0 -3
BITMAP
0000
0000
0000
0000
0000
0000
0000
0000
0000
0000
0000
0000
0000
0000
ENDCHAR
STARTCHAR e6
ENCODING 230
SWIDTH 562 0
DWIDTH 9 0
BBX 9 14 0 -3
BITMAP
0000
0000
0000
0000
0000
0000
0000
0000
0000
0000
0000
0000
0000
0000
ENDCHAR
STARTCHAR e7
ENCODING 231
SWIDTH 562 0
DWIDTH 9 0
BBX 9 14 0 -3
BITMAP
0000
0000
0000
0000
0000
0000
0000
0000
0000
0000
0000
0000
0000
0000
ENDCHAR
STARTCHAR e8
ENCODING 232
SWIDTH 562 0
DWIDTH 9 0
BBX 9 14 0 -3
BITMAP
0000
0000
0000
0000
0000
0000
0000
0000
0000
0000
0000
0000
0000
0000
ENDCHAR
STARTCHAR e9
ENCODING 233
SWIDTH 562 0
DWIDTH 9 0
BBX 9 14 0 -3
BITMAP
0000
0000
0000
0000
0000
0000
0000
0000
0000
0000
0000
0000
0000
0000
ENDCHAR
STARTCHAR ea
ENCODING 234
SWIDTH 562 0
DWIDTH 9 0
BBX 9 14 0 -3
BITMAP
0000
0000
0000
0000
0000
0000
0000
0000
0000
0000
0000
0000
0000
0000
ENDCHAR
STARTCHAR eb
ENCODING 235
SWIDTH 562 0
DWIDTH 9 0
BBX 9 14 0 -3
BITMAP
0000
0000
0000
0000
0000
0000
0000
0000
0000
0000
0000
0000
0000
0000
ENDCHAR
STARTCHAR ec
ENCODING 236
SWIDTH 562 0
DWIDTH 9 0
BBX 9 14 0 -3
BITMAP
0000
0000
0000
0000
0000
0000
0000
0000
0000
0000
0000
0000
0000
0000
ENDCHAR
STARTCHAR ed
ENCODING 237
SWIDTH 562 0
DWIDTH 9 0
BBX 9 14 0 -3
BITMAP
0000
0000
0000
0000
0000
0000
0000
0000
0000
0000
0000
0000
0000
0000
ENDCHAR
STARTCHAR ee
ENCODING 238
SWIDTH 562 0
DWIDTH 9 0
BBX 9 14 0 -3
BITMAP
0000
0000
0000
0000
0000
0000
0000
0000
0000
0000
0000
0000
0000
0000
ENDCHAR
STARTCHAR ef
ENCODING 239
SWIDTH 562 0
DWIDTH 9 0
BBX 9 14 0 -3
BITMAP
0000
0000
0000
0000
0000
0000
0000
0000
0000
0000
0000
0000
0000
0000
ENDCHAR
STARTCHAR badcommhi
ENCODING 240
SWIDTH 562 0
DWIDTH 9 0
BBX 9 11 0 -1
BITMAP
8000
c000
e000
7000
3800
ff80
0e00
0700
0380
0180
0080
ENDCHAR
STARTCHAR commhi
ENCODING 241
SWIDTH 562 0
DWIDTH 9 0
BBX 9 1 0 4
BITMAP
ff80
ENDCHAR
STARTCHAR commjag
ENCODING 242
SWIDTH 562 0
DWIDTH 9 0
BBX 9 5 0 0
BITMAP
fc00
0800
1000
2000
7f80
ENDCHAR
STARTCHAR commlo
ENCODING 243
SWIDTH 562 0
DWIDTH 9 0
BBX 9 1 0 0
BITMAP
ff80
ENDCHAR
STARTCHAR clockleft
ENCODING 244
SWIDTH 562 0
DWIDTH 9 0
BBX 8 13 1 -3
BITMAP
02
10
00
40
00
01
82
02
02
42
02
10
02
ENDCHAR
STARTCHAR clockright
ENCODING 245
SWIDTH 562 0
DWIDTH 9 0
BBX 6 11 0 -1
BITMAP
20
00
28
40
80
04
00
00
08
00
20
ENDCHAR
STARTCHAR lock
ENCODING 246
SWIDTH 562 0
DWIDTH 9 0
BBX 9 12 0 -1
BITMAP
8080
c180
e380
f780
7f00
3e00
3e00
7f00
f780
e380
c180
8080
ENDCHAR
STARTCHAR notgreater
ENCODING 247
SWIDTH 562 0
DWIDTH 9 0
BBX 6 7 1 1
BITMAP
0c
30
c0
30
0c
00
fc
ENDCHAR
STARTCHAR leftarrow
ENCODING 248
SWIDTH 562 0
DWIDTH 9 0
BBX 8 5 1 2
BITMAP
20
60
ff
60
20
ENDCHAR
STARTCHAR downstile
ENCODING 249
SWIDTH 562 0
DWIDTH 9 0
BBX 3 9 3 0
BITMAP
80
80
80
80
80
80
80
80
e0
ENDCHAR
STARTCHAR keyleft
ENCODING 250
SWIDTH 562 0
DWIDTH 9 0
BBX 6 5 3 3
BITMAP
70
88
8c
88
70
ENDCHAR
STARTCHAR keyright
ENCODING 251
SWIDTH 562 0
DWIDTH 9 0
BBX 9 4 0 2
BITMAP
ff80
1d80
1d80
0180
ENDCHAR
STARTCHAR box4
ENCODING 252
SWIDTH 562 0
DWIDTH 9 0
BBX 9 11 0 -2
BITMAP
ff80
8080
8480
8c80
9480
a480
be80
8480
8480
8080
ff80
ENDCHAR
STARTCHAR underA
ENCODING 253
SWIDTH 562 0
DWIDTH 9 0
BBX 9 9 0 2
BITMAP
0800
1400
2200
2200
3e00
2200
2200
0000
ff80
ENDCHAR
STARTCHAR magcard
ENCODING 254
SWIDTH 562 0
DWIDTH 9 0
BBX 9 7 0 1
BITMAP
ff80
8080
8080
8080
ff80
8080
ff80
ENDCHAR
STARTCHAR boxhuman
ENCODING 255
SWIDTH 562 0
DWIDTH 9 0
BBX 9 13 0 -2
BITMAP
ff80
8080
9c80
9480
9c80
8880
ff80
8880
8880
9480
a280
c180
ff80
ENDCHAR
ENDFONT
